<?xml version="1.0" encoding="UTF-8"?>
<svg version="1.1" xmlns="http://www.w3.org/2000/svg" width="512" height="512">
<path d="M0 0 C168.96 0 337.92 0 512 0 C512 168.96 512 337.92 512 512 C343.04 512 174.08 512 0 512 C0 343.04 0 174.08 0 0 Z " fill="#000000" transform="translate(0,0)"/>
<path d="M0 0 C125.825 0 125.825 0 146 10 C146.98871094 10.474375 147.97742188 10.94875 148.99609375 11.4375 C166.17040785 20.20330803 179.16670084 34.49014848 185.3515625 52.79296875 C188.50938054 63.39096958 189.20157637 73.31428383 189.25 84.3125 C189.2809375 86.05176758 189.2809375 86.05176758 189.3125 87.82617188 C189.34647913 95.38228168 188.413038 101.84491142 186 109 C185.78085938 109.68215576 185.56171875 110.36431152 185.3359375 111.06713867 C182.08039912 120.78924451 177.57787988 128.12086984 171 136 C170.48566406 136.66515625 169.97132813 137.3303125 169.44140625 138.015625 C163.33669596 145.69407081 154.94271969 151.99119462 146 156 C145.34 156 144.68 156 144 156 C144.40089844 156.72662842 144.80179688 157.45325684 145.21484375 158.2019043 C146.10364641 159.81285912 146.99244844 161.4238143 147.88124084 163.03477478 C149.6491847 166.23920863 151.41719215 169.44360736 153.18530273 172.64794922 C156.82399031 179.24248314 160.46195808 185.83741119 164.09765625 192.43359375 C170.03482959 203.20405576 175.97531643 213.97258953 181.95068359 224.72192383 C183.21849043 227.00516642 184.48321736 229.29012231 185.74462891 231.5769043 C188.47678339 236.52089043 191.2342399 241.43335946 194.16015625 246.265625 C194.63404785 247.06460205 195.10793945 247.8635791 195.59619141 248.68676758 C196.44513178 250.11130004 197.31369038 251.5244755 198.20849609 252.9206543 C202.08106907 259.48998881 201 262.20276088 201 271 C184.83 271 168.66 271 152 271 C150.2675 267.65875 148.535 264.3175 146.75 260.875 C142.21641425 252.16351302 137.58178545 243.5153148 132.85449219 234.90771484 C128.32740642 226.64483956 123.90939327 218.32602502 119.5 210 C113.92731038 199.47782091 108.3094314 188.98388561 102.578125 178.546875 C101.90716797 177.32484375 101.90716797 177.32484375 101.22265625 176.078125 C100.83859619 175.38106445 100.45453613 174.68400391 100.05883789 173.96582031 C98.99908932 171.99830925 97.99941651 169.99883302 97 168 C81.16 167.67 65.32 167.34 49 167 C49 201.32 49 235.64 49 271 C32.83 271 16.66 271 0 271 C0 181.57 0 92.14 0 0 Z " fill="#FDFDFD" transform="translate(46,121)"/>
<path d="M0 0 C149.89387572 0 149.89387572 0 177.16015625 27 C193.94558635 44.35246825 199.48537426 67.15330121 199.21875 90.5859375 C199.0215812 97.63225751 197.84477257 104.18547374 196 111 C195.7215625 112.03253906 195.443125 113.06507813 195.15625 114.12890625 C189.64754033 132.34089036 178.15719094 147.70015278 161.4453125 157.0234375 C142.74524814 167.02871547 124.0684664 170.34417402 102.98046875 170.1953125 C101.56400715 170.19236228 100.14754334 170.19032789 98.7310791 170.18920898 C93.54985225 170.17883504 88.36867244 170.15091332 83.1875 170.125 C71.575625 170.08375 59.96375 170.0425 48 170 C48 203.33 48 236.66 48 271 C32.16 271 16.32 271 0 271 C0 181.57 0 92.14 0 0 Z " fill="#FEFEFE" transform="translate(268,121)"/>
<path d="M0 0 C9.075 -0.061875 18.15 -0.12375 27.5 -0.1875 C31.74520508 -0.22846802 31.74520508 -0.22846802 36.07617188 -0.27026367 C74.94929821 -0.48878927 74.94929821 -0.48878927 89.89453125 11.890625 C98.6383495 20.65066554 102.23263265 30.9128538 102.3125 43.0625 C102.14396878 54.55845235 99.78135732 65.05478081 92.21484375 74.14453125 C80.14869335 85.51693994 64.6493904 86.31990585 48.92578125 86.1953125 C47.67873413 86.19329834 46.43168701 86.19128418 45.14685059 86.18920898 C40.53536241 86.17882812 35.9239271 86.15090625 31.3125 86.125 C20.979375 86.08375 10.64625 86.0425 0 86 C0 57.62 0 29.24 0 0 Z " fill="#020202" transform="translate(316,163)"/>
<path d="M0 0 C13.303125 -0.061875 13.303125 -0.061875 26.875 -0.125 C29.65534668 -0.14320801 32.43569336 -0.16141602 35.30029297 -0.18017578 C37.53092252 -0.18602299 39.76155423 -0.191118 41.9921875 -0.1953125 C43.12857666 -0.20554443 44.26496582 -0.21577637 45.43579102 -0.22631836 C59.040091 -0.2292662 72.11421019 2.57280348 82.46875 12.08984375 C91.47237591 23.3214077 91.76712253 35.33385423 91 49 C89.59726056 58.81917605 83.97079154 67.13892372 76.421875 73.4296875 C71.67397914 76.50816192 66.34433572 78.23073975 61 80 C60.01 80.33 59.02 80.66 58 81 C56.11343185 81.08852819 54.22384476 81.11762222 52.33520508 81.11352539 C51.15800903 81.11340454 49.98081299 81.11328369 48.76794434 81.11315918 C47.53096802 81.10804321 46.2939917 81.10292725 45.01953125 81.09765625 C43.31379944 81.09614563 43.31379944 81.09614563 41.5736084 81.09460449 C37.31989536 81.0893668 33.06619668 81.07540556 28.8125 81.0625 C14.5503125 81.0315625 14.5503125 81.0315625 0 81 C0 54.27 0 27.54 0 0 Z " fill="#000000" transform="translate(95,164)"/>
</svg>
